<svg xmlns="http://www.w3.org/2000/svg" width="22" height="20" viewBox="0 0 1000 915"><g><rect width="960" height="875" x="20" y="20" fill="#F3C022" rx="119" ry="119"/><path fill="#9F9F93" d="M139 0l722 0c38,0 73,16 98,41 25,25 41,60 41,98l0 637c0,38 -16,73 -41,98 -25,25 -60,41 -98,41l-722 0c-38,0 -73,-16 -98,-41 -25,-25 -41,-60 -41,-98l0 -637c0,-38 16,-73 41,-98 25,-25 60,-41 98,-41zm722 40l-722 0c-27,0 -52,11 -70,29 -18,18 -29,43 -29,70l0 637c0,27 11,52 29,70 18,18 43,29 70,29l722 0c27,0 52,-11 70,-29 18,-18 29,-43 29,-70l0 -637c0,-27 -11,-52 -29,-70 -18,-18 -43,-29 -70,-29z"/><polygon fill="#F7D56E" points="169 542 749 710 834 375 383 208"/><path fill="#B08A15" d="M188 535l553 160 79 -312 -433 -161 -199 313zm558 186l-595 -172 227 -355 470 174 -90 356 -12 -3z"/><circle cx="383" cy="208" r="49" fill="#000"/><circle cx="169" cy="542" r="49" fill="#000"/><circle cx="834" cy="375" r="49" fill="#000"/><circle cx="749" cy="710" r="49" fill="#000"/></g></svg>