<svg xmlns="http://www.w3.org/2000/svg" width="22" height="20" viewBox="0 0 1000 915"><g><rect width="960" height="875" x="20" y="20" fill="#EDEDE8" rx="119" ry="119"/><path fill="#9F9F93" d="M139 0l722 0c38,0 73,16 98,41 25,25 41,60 41,98l0 637c0,38 -16,73 -41,98 -25,25 -60,41 -98,41l-722 0c-38,0 -73,-16 -98,-41 -25,-25 -41,-60 -41,-98l0 -637c0,-38 16,-73 41,-98 25,-25 60,-41 98,-41zm722 40l-722 0c-27,0 -52,11 -70,29 -18,18 -29,43 -29,70l0 637c0,27 11,52 29,70 18,18 43,29 70,29l722 0c27,0 52,-11 70,-29 18,-18 29,-43 29,-70l0 -637c0,-27 -11,-52 -29,-70 -18,-18 -43,-29 -70,-29z" class="fil1"/><polygon fill="#ABABA7" points="159 536 378 194 848 368 761 713 738 707 820 383 387 222 179 548" class="fil2"/><circle cx="383" cy="208" r="49" fill="#000"/><circle cx="169" cy="542" r="49" fill="#000"/><circle cx="834" cy="375" r="49" fill="#000"/><circle cx="749" cy="710" r="49" fill="#000"/></g></svg>