<svg xmlns="http://www.w3.org/2000/svg" width="22" height="20" viewBox="0 0 1000 915"><g><rect width="960" height="875" x="20" y="20" fill="#EDEDE8" rx="119" ry="119"/><path fill="#9F9F93" d="M139 0l722 0c38,0 73,16 98,41 25,25 41,60 41,98l0 637c0,38 -16,73 -41,98 -25,25 -60,41 -98,41l-722 0c-38,0 -73,-16 -98,-41 -25,-25 -41,-60 -41,-98l0 -637c0,-38 16,-73 41,-98 25,-25 60,-41 98,-41zm722 40l-722 0c-27,0 -52,11 -70,29 -18,18 -29,43 -29,70l0 637c0,27 11,52 29,70 18,18 43,29 70,29l722 0c27,0 52,-11 70,-29 18,-18 29,-43 29,-70l0 -637c0,-27 -11,-52 -29,-70 -18,-18 -43,-29 -70,-29z"/><path fill="#000" d="M573 269l114 114 -289 288 -114 -114 289 -288zm200 -28l-51 -50c-19,-20 -51,-20 -71,0l-49 48 114 114 57 -57c15,-15 15,-39 0,-55zm-548 476c-2,10 6,18 15,16l127 -31 -113 -114 -29 129z"/></g></svg>