<?xml version="1.0" encoding="UTF-8" standalone="no"?>
<svg width="36px" height="36px" viewBox="0 0 36 36" version="1.1" xmlns="http://www.w3.org/2000/svg">
  <title>django-dj-centered</title>
  <g transform="translate(5,3)" fill="#FFFFFF" fill-rule="evenodd">
    <!-- "d" -->
    <path d="M10.2602817,0 L15.9509859,0 L15.9509859,26.0824248 C13.0360563,26.6338042 10.8901408,26.8507285 8.5684507,26.8507285 C1.6180282,26.8434735 -2,23.7383366 -2,17.7747325 C-2,12.0287781 1.8377465,8.2997118 7.7847887,8.2997118 C8.7076056,8.2997118 9.4107042,8.3722617 10.2602817,8.5899115 L10.2602817,0 Z M10.2602817,13.1242821 C9.5938028,12.9066323 9.044507,12.8340823 8.3414085,12.8340823 C5.4630986,12.8340823 3.8005634,14.5897906 3.8005634,17.6666331 C3.8005634,20.6622196 5.3898592,22.316358 8.3047887,22.316358 C8.9346479,22.316358 9.4473239,22.2808085 10.2602817,22.1719836 L10.2602817,13.1242821 Z"/>
    <!-- "j" -->
    <path d="M24.9960563,8.6987364 L24.9960563,21.7577235 C24.9960563,26.2550936 24.6591549,28.417807 23.6704225,30.2823401 C22.7476056,32.0750489 21.531831,33.2053768 19.0197183,34.453961 L13.7391549,31.9654985 C16.2512676,30.7981701 17.4670423,29.7665101 18.2433803,28.1921767 C19.056338,26.5822938 19.3126761,24.7177606 19.3126761,19.8133855 L19.3126761,8.6987364 L24.9960563,8.6987364 Z M19.3126761,0.02901997 L25.0033803,0.02901997 L25.0033803,5.8112493 L19.3126761,5.8112493 L19.3126761,0.02901997 Z"/>
  </g>
</svg>
