<svg xmlns="http://www.w3.org/2000/svg" xmlns:xlink="http://www.w3.org/1999/xlink" width="15" height="60" viewBox="0 0 1792 7168"><defs><g id="previous"><path d="M1037 1395l102-102q19-19 19-45t-19-45l-307-307 307-307q19-19 19-45t-19-45l-102-102q-19-19-45-19t-45 19l-454 454q-19 19-19 45t19 45l454 454q19 19 45 19t45-19zm627-499q0 209-103 385.5t-279.5 279.5-385.5 103-385.5-103-279.5-279.5-103-385.5 103-385.5 279.5-279.5 385.5-103 385.5 103 279.5 279.5 103 385.5z"/></g><g id="next"><path d="M845 1395l454-454q19-19 19-45t-19-45l-454-454q-19-19-45-19t-45 19l-102 102q-19 19-19 45t19 45l307 307-307 307q-19 19-19 45t19 45l102 102q19 19 45 19t45-19zm819-499q0 209-103 385.5t-279.5 279.5-385.5 103-385.5-103-279.5-279.5-103-385.5 103-385.5 279.5-279.5 385.5-103 385.5 103 279.5 279.5 103 385.5z"/></g></defs><use x="0" y="0" fill="#333" xlink:href="#previous"/><use x="0" y="1792" fill="#000" xlink:href="#previous"/><use x="0" y="3584" fill="#333" xlink:href="#next"/><use x="0" y="5376" fill="#000" xlink:href="#next"/></svg>