<svg
  width="15"
  height="30"
  viewBox="0 0 512 1024"
  version="1.1"
  id="svg5"
  xmlns:xlink="http://www.w3.org/1999/xlink"
  xmlns="http://www.w3.org/2000/svg">
  <!--!Font Awesome Free 6.7.2 by @fontawesome - https://fontawesome.com License - https://fontawesome.com/license/free Copyright 2025 Fonticons, Inc.-->
  <defs id="defs2">
    <g id="previous">
      <!--
      Icon Name: circle-chevron-left
      Icon Family: classic
      Icon Style: solid
      -->
      <path
          d="M512 256A256 256 0 1 0 0 256a256 256 0 1 0 512 0zM271 135c9.4-9.4 24.6-9.4 33.9 0s9.4 24.6 0 33.9l-87 87 87 87c9.4 9.4 9.4 24.6 0 33.9s-24.6 9.4-33.9 0L167 273c-9.4-9.4-9.4-24.6 0-33.9L271 135z"
          id="path2" />
    </g>
    <g id="next">
      <!--
      Icon Name: circle-chevron-right
      Icon Family: classic
      Icon Style: solid
      -->
      <path
          d="M0 256a256 256 0 1 0 512 0A256 256 0 1 0 0 256zM241 377c-9.4 9.4-24.6 9.4-33.9 0s-9.4-24.6 0-33.9l87-87-87-87c-9.4-9.4-9.4-24.6 0-33.9s24.6-9.4 33.9 0L345 239c9.4 9.4 9.4 24.6 0 33.9L241 377z"
          id="path1" />
    </g>
  </defs>
  <use
      xlink:href="#next"
      x="0"
      y="512"
      fill="#000000"
      id="use5" />
  <use
      xlink:href="#previous"
      x="0"
      y="0"
      fill="#333333"
      id="use2" />
</svg>
