<svg width="16" height="32" viewBox="0 0 512 1024" xmlns="http://www.w3.org/2000/svg" xmlns:xlink="http://www.w3.org/1999/xlink">
  <!--!Font Awesome Free 6.7.2 by @fontawesome - https://fontawesome.com License - https://fontawesome.com/license/free Copyright 2025 Fonticons, Inc.-->
 <defs>
    <g id="icon">
      <!--
        Icon Name: clock
        Icon Family: classic
        Icon Style: regular
      -->
      <path d="M464 256A208 208 0 1 1 48 256a208 208 0 1 1 416 0zM0 256a256 256 0 1 0 512 0A256 256 0 1 0 0 256zM232 120l0 136c0 8 4 15.5 10.7 20l96 64c11 7.4 25.9 4.4 33.3-6.7s4.4-25.9-6.7-33.3L280 243.2 280 120c0-13.3-10.7-24-24-24s-24 10.7-24 24z"/>
    </g>
  </defs>
  <use xlink:href="#icon" x="0" y="0" fill="#447e9b"/>
  <use xlink:href="#icon" x="0" y="512" fill="#003366" />
</svg>
