<svg width="16" height="32" viewBox="0 0 448 1024" xmlns="http://www.w3.org/2000/svg" xmlns:xlink="http://www.w3.org/1999/xlink">
  <!--!Font Awesome Free 6.7.2 by @fontawesome - https://fontawesome.com License - https://fontawesome.com/license/free Copyright 2025 Fonticons, Inc.-->
  <defs>
    <g id="icon">
      <!--
        Icon Name: calendar-days
        Icon Family: classic
        Icon Style: regular
      -->
      <path d="M152 24c0-13.3-10.7-24-24-24s-24 10.7-24 24l0 40L64 64C28.7 64 0 92.7 0 128l0 16 0 48L0 448c0 35.3 28.7 64 64 64l320 0c35.3 0 64-28.7 64-64l0-256 0-48 0-16c0-35.3-28.7-64-64-64l-40 0 0-40c0-13.3-10.7-24-24-24s-24 10.7-24 24l0 40L152 64l0-40zM48 192l80 0 0 56-80 0 0-56zm0 104l80 0 0 64-80 0 0-64zm128 0l96 0 0 64-96 0 0-64zm144 0l80 0 0 64-80 0 0-64zm80-48l-80 0 0-56 80 0 0 56zm0 160l0 40c0 8.8-7.2 16-16 16l-64 0 0-56 80 0zm-128 0l0 56-96 0 0-56 96 0zm-144 0l0 56-64 0c-8.8 0-16-7.2-16-16l0-40 80 0zM272 248l-96 0 0-56 96 0 0 56z"/>
    </g>
  </defs>
  <use xlink:href="#icon" x="0" y="0" fill="#447e9b" />
  <use xlink:href="#icon" x="0" y="512" fill="#003366" />
</svg>
