<svg width="13" height="13" viewBox="0 0 1792 1792" xmlns="http://www.w3.org/2000/svg">
  <path fill="#53a7e0" d="M1561 510.5c-68.67-117.67-161.83-210.83-279.5-279.5-117.67-68.67-246.17-103-385.5-103s-267.83 34.33-385.5 103c-117.67 68.67-210.83 161.83-279.5 279.5-68.67 117.67-103 246.17-103 385.5s34.33 267.83 103 385.5c68.67 117.67 161.83 210.83 279.5 279.5 117.67 68.67 246.17 103 385.5 103s267.83-34.33 385.5-103c117.67-68.67 210.83-161.83 279.5-279.5 68.67-117.67 103-246.17 103-385.5s-34.33-267.83-103-385.5ZM1000.34 1396.65h-208.68v-659.76h208.68v659.76ZM896 628.93c-64.5 0-116.79-52.29-116.79-116.79s52.29-116.79 116.79-116.79 116.79 52.29 116.79 116.79-52.29 116.79-116.79 116.79z"/>
</svg>
