<svg width="14" height="84" viewBox="0 0 512 3072" xmlns="http://www.w3.org/2000/svg" xmlns:xlink="http://www.w3.org/1999/xlink">
  <!--!Font Awesome Free 6.7.2 by @fontawesome - https://fontawesome.com License - https://fontawesome.com/license/free Copyright 2025 Fonticons, Inc.-->
  <defs>
    <g id="sort">
      <!--
        Icon Name: sort
        Icon Family: classic
        Icon Style: solid
      -->
      <path d="M137.4 41.4c12.5-12.5 32.8-12.5 45.3 0l128 128c9.2 9.2 11.9 22.9 6.9 34.9s-16.6 19.8-29.6 19.8L32 224c-12.9 0-24.6-7.8-29.6-19.8s-2.2-25.7 6.9-34.9l128-128zm0 429.3l-128-128c-9.2-9.2-11.9-22.9-6.9-34.9s16.6-19.8 29.6-19.8l256 0c12.9 0 24.6 7.8 29.6 19.8s2.2 25.7-6.9 34.9l-128 128c-12.5 12.5-32.8 12.5-45.3 0z"/>
    </g>
    <g id="ascending">
      <!--
        Icon Name: sort-up
        Icon Family: classic
        Icon Style: solid
      -->
      <path d="M182.6 41.4c-12.5-12.5-32.8-12.5-45.3 0l-128 128c-9.2 9.2-11.9 22.9-6.9 34.9s16.6 19.8 29.6 19.8l256 0c12.9 0 24.6-7.8 29.6-19.8s2.2-25.7-6.9-34.9l-128-128z"/>
    </g>
    <g id="descending">
      <!--
        Icon Name: sort-down
        Icon Family: classic
        Icon Style: solid
      -->
      <path d="M182.6 470.6c-12.5 12.5-32.8 12.5-45.3 0l-128-128c-9.2-9.2-11.9-22.9-6.9-34.9s16.6-19.8 29.6-19.8l256 0c12.9 0 24.6 7.8 29.6 19.8s2.2 25.7-6.9 34.9l-128 128z"/>
    </g>
  </defs>
  <use xlink:href="#sort" x="0" y="0" fill="#999999" />
  <use xlink:href="#sort" x="0" y="512" fill="#447e9b" />
  <use xlink:href="#ascending" x="0" y="1024" fill="#999999" />
  <use xlink:href="#ascending" x="0" y="1536" fill="#447e9b" />
  <use xlink:href="#descending" x="0" y="2048" fill="#999999" />
  <use xlink:href="#descending" x="0" y="2560" fill="#447e9b" />
</svg>
